<svg xmlns="http://www.w3.org/2000/svg" viewBox="0 0 137.24527 32">
  <path d="M105.69693,16.41029a2.25464,2.25464,0,0,0-2.4617-2.46174,6.52032,6.52032,0,0,0-4.10291,1.84767V28.10286c0,2.66757,0,2.66757,2.46171,2.66757v.8199H90.10663v-.8199c2.46174,0,2.46174,0,2.46174-2.66757V4.51326c0-2.05145,0-2.05145-2.05145-2.05145V1.84569L98.80477.00007h.32755V14.97428h.08274a8.81355,8.81355,0,0,1,7.50767-4.30668c2.7489,0,5.5389,1.63979,5.5389,6.1523v11.283c0,2.66757,0,2.66757,2.461,2.66757v.8199h-10.6661v-.8199c1.6404,0,1.6404,0,1.6404-2.66757ZM83.21315,27.2829a6.56657,6.56657,0,0,0,6.15435-3.48746h.41028c-.82057,4.10289-3.6926,8.20442-8.82122,8.20442-6.7691,0-10.46171-4.92279-10.46171-10.461A10.78613,10.78613,0,0,1,81.36753,10.66753c5.12794,0,7.83585,2.50277,7.83585,5.12862,0,1.43533-.65646,2.87066-3.1182,2.87066-2.05145,0-2.50277-1.27121-2.46106-2.13419.20446-2.99374,0-5.04519-2.46242-5.04519-2.87134,0-4.18427,3.81569-4.18427,8.57369C76.97743,25.43591,80.13666,27.2829,83.21315,27.2829ZM61.34505,16.41029a2.25468,2.25468,0,0,0-2.46174-2.46174,6.52032,6.52032,0,0,0-4.1029,1.84767V28.10286c0,2.66757,0,2.66757,2.46174,2.66757v.8199H45.75472v-.8199c2.46174,0,2.46174,0,2.46174-2.66757V15.1801c0-2.05144,0-2.05144-2.05145-2.05144v-.61544L54.576,10.6676h.32755l-.12309,4.30668h.08274a8.81352,8.81352,0,0,1,7.50762-4.30668c2.74894,0,5.53891,1.63979,5.53891,6.1523v11.283c0,2.66757,0,2.66757,2.46106,2.66757v.8199H59.70457v-.8199c1.64048,0,1.64048,0,1.64048-2.66757ZM31.72261,18.87141h6.03057c.69818-2.7886,1.27259-7.38384-1.8463-7.38384C33.56891,11.48757,31.88673,13.66142,31.72261,18.87141ZM25.24072,21.5383A10.786,10.786,0,0,1,36.11271,10.667c4.71765,0,8.98466,2.05144,7.75379,9.02569H31.72261c0,5.53891,3.15923,7.59036,6.23572,7.59036a6.56574,6.56574,0,0,0,6.15435-3.48747H44.523C43.70307,27.89847,40.83036,32,35.70174,32,28.93264,32,25.24072,27.07721,25.24072,21.5383ZM10.22363,16.41c3.69329,0,5.12862-2.46106,5.12862-6.35881,0-3.48678-1.43533-6.35949-3.89775-6.35949H9.40305V16.41Zm-.82058.82126V30.77016h2.872c3.28232,0,4.308-3.283,4.308-6.97425,0-3.69329-1.8463-6.56463-5.53891-6.56463ZM12.68537,2.87114c6.15435,0,9.43666,2.872,9.43666,6.97492,0,3.28232-2.46173,5.74406-5.744,6.6467v.08137c5.12794,1.27122,6.97424,4.267,6.97424,7.42556,0,4.51319-3.28163,7.59036-9.4353,7.59036H.37736v-.81989c2.46106,0,2.46106,0,2.46106-2.66757V6.3586c0-2.66688,0-2.66688-2.46106-2.66688V2.87114Zm118.783,3.967V8.88961h-1.40258l.71049,5.68456h-2.06711l-.71049-5.68456h-3.3179l-.7105,5.68456H121.903l.7105-5.68456H121.211V6.83816Zm-5.12869,15.72778a11.29629,11.29629,0,0,1-11.2829-11.283V0h22.56591V11.283A11.29631,11.29631,0,0,1,126.33963,22.56594Zm-9.2315-20.51449V11.283a9.2315,9.2315,0,1,0,18.463,0V2.05145Z" transform="translate(-0.37736)"/>
</svg>
